<mxfile host="app.diagrams.net" modified="2021-09-13T09:04:34.276Z" agent="5.0 (Macintosh; Intel Mac OS X 10_15_7) AppleWebKit/537.36 (KHTML, like Gecko) Chrome/92.0.4515.159 Safari/537.36" etag="2_N8uj83SlSbSl-h7frT" version="14.8.4" type="github">
  <diagram id="m6H8VTKPJ6Sz8m5hufJF" name="第 1 页">
    <mxGraphModel dx="2067" dy="754" grid="1" gridSize="10" guides="1" tooltips="1" connect="1" arrows="1" fold="1" page="1" pageScale="1" pageWidth="827" pageHeight="1169" math="0" shadow="0">
      <root>
        <mxCell id="0" />
        <mxCell id="1" parent="0" />
        <mxCell id="TbtT0JVvoeRSLPMh4YAU-9" value="" style="group" vertex="1" connectable="0" parent="1">
          <mxGeometry x="-800" y="10" width="810" height="505" as="geometry" />
        </mxCell>
        <mxCell id="xWHJRbcJxK2UCn6IHJpZ-27" value="事件监听" style="rounded=0;whiteSpace=wrap;html=1;fillColor=#dae8fc;strokeColor=#6c8ebf;" parent="TbtT0JVvoeRSLPMh4YAU-9" vertex="1">
          <mxGeometry width="810" height="170" as="geometry" />
        </mxCell>
        <mxCell id="xWHJRbcJxK2UCn6IHJpZ-18" value="" style="rounded=0;whiteSpace=wrap;html=1;fillColor=#fff2cc;strokeColor=#d6b656;" parent="TbtT0JVvoeRSLPMh4YAU-9" vertex="1">
          <mxGeometry y="180" width="810" height="220" as="geometry" />
        </mxCell>
        <mxCell id="xWHJRbcJxK2UCn6IHJpZ-2" value="" style="rounded=1;whiteSpace=wrap;html=1;fillColor=none;" parent="TbtT0JVvoeRSLPMh4YAU-9" vertex="1">
          <mxGeometry x="99" y="200" width="596.4545454545455" height="100" as="geometry" />
        </mxCell>
        <mxCell id="xWHJRbcJxK2UCn6IHJpZ-3" value="chromium" style="text;html=1;strokeColor=none;fillColor=none;align=center;verticalAlign=middle;whiteSpace=wrap;rounded=0;" parent="TbtT0JVvoeRSLPMh4YAU-9" vertex="1">
          <mxGeometry x="143.1818181818182" y="240" width="32.72727272727273" height="20" as="geometry" />
        </mxCell>
        <mxCell id="xWHJRbcJxK2UCn6IHJpZ-23" value="Electron" style="text;html=1;strokeColor=none;fillColor=none;align=center;verticalAlign=middle;whiteSpace=wrap;rounded=0;" parent="TbtT0JVvoeRSLPMh4YAU-9" vertex="1">
          <mxGeometry x="34.36363636363636" y="275" width="32.72727272727273" height="20" as="geometry" />
        </mxCell>
        <mxCell id="xWHJRbcJxK2UCn6IHJpZ-29" value="业务层" style="text;html=1;strokeColor=none;fillColor=none;align=center;verticalAlign=middle;whiteSpace=wrap;rounded=0;" parent="TbtT0JVvoeRSLPMh4YAU-9" vertex="1">
          <mxGeometry x="31.36" y="75" width="45.64" height="20" as="geometry" />
        </mxCell>
        <mxCell id="xWHJRbcJxK2UCn6IHJpZ-31" value="" style="rounded=1;whiteSpace=wrap;html=1;fillColor=none;" parent="TbtT0JVvoeRSLPMh4YAU-9" vertex="1">
          <mxGeometry x="274.9090909090909" y="24" width="338.7272727272727" height="45" as="geometry" />
        </mxCell>
        <mxCell id="xWHJRbcJxK2UCn6IHJpZ-32" value="" style="rounded=1;whiteSpace=wrap;html=1;fillColor=none;" parent="TbtT0JVvoeRSLPMh4YAU-9" vertex="1">
          <mxGeometry x="274.9090909090909" y="104" width="338.7272727272727" height="45" as="geometry" />
        </mxCell>
        <mxCell id="xWHJRbcJxK2UCn6IHJpZ-39" value="win.loadUrl" style="text;html=1;strokeColor=none;fillColor=none;align=center;verticalAlign=middle;whiteSpace=wrap;rounded=0;" parent="TbtT0JVvoeRSLPMh4YAU-9" vertex="1">
          <mxGeometry x="293.72727272727275" y="36.5" width="32.72727272727273" height="20" as="geometry" />
        </mxCell>
        <mxCell id="xWHJRbcJxK2UCn6IHJpZ-40" value="win.loadFile" style="text;html=1;strokeColor=none;fillColor=none;align=center;verticalAlign=middle;whiteSpace=wrap;rounded=0;" parent="TbtT0JVvoeRSLPMh4YAU-9" vertex="1">
          <mxGeometry x="293.72727272727275" y="116.5" width="32.72727272727273" height="20" as="geometry" />
        </mxCell>
        <mxCell id="xWHJRbcJxK2UCn6IHJpZ-41" value="本地页面1" style="rounded=1;whiteSpace=wrap;html=1;fillColor=none;" parent="TbtT0JVvoeRSLPMh4YAU-9" vertex="1">
          <mxGeometry x="361.6363636363636" y="114" width="61.36363636363636" height="25" as="geometry" />
        </mxCell>
        <mxCell id="xWHJRbcJxK2UCn6IHJpZ-42" value="本地页面2" style="rounded=1;whiteSpace=wrap;html=1;fillColor=none;" parent="TbtT0JVvoeRSLPMh4YAU-9" vertex="1">
          <mxGeometry x="434.45454545454544" y="114" width="61.36363636363636" height="25" as="geometry" />
        </mxCell>
        <mxCell id="xWHJRbcJxK2UCn6IHJpZ-43" value="本地页面3" style="rounded=1;whiteSpace=wrap;html=1;fillColor=none;" parent="TbtT0JVvoeRSLPMh4YAU-9" vertex="1">
          <mxGeometry x="504" y="114" width="61.36363636363636" height="25" as="geometry" />
        </mxCell>
        <mxCell id="xWHJRbcJxK2UCn6IHJpZ-44" value="..." style="text;html=1;strokeColor=none;fillColor=none;align=center;verticalAlign=middle;whiteSpace=wrap;rounded=0;" parent="TbtT0JVvoeRSLPMh4YAU-9" vertex="1">
          <mxGeometry x="568.6363636363636" y="114" width="32.72727272727273" height="20" as="geometry" />
        </mxCell>
        <mxCell id="xWHJRbcJxK2UCn6IHJpZ-45" value="远程页面1" style="rounded=1;whiteSpace=wrap;html=1;fillColor=none;" parent="TbtT0JVvoeRSLPMh4YAU-9" vertex="1">
          <mxGeometry x="361.6363636363636" y="34" width="61.36363636363636" height="25" as="geometry" />
        </mxCell>
        <mxCell id="xWHJRbcJxK2UCn6IHJpZ-46" value="远程页面2" style="rounded=1;whiteSpace=wrap;html=1;fillColor=none;" parent="TbtT0JVvoeRSLPMh4YAU-9" vertex="1">
          <mxGeometry x="434.45454545454544" y="34" width="61.36363636363636" height="25" as="geometry" />
        </mxCell>
        <mxCell id="xWHJRbcJxK2UCn6IHJpZ-47" value="远程页面3" style="rounded=1;whiteSpace=wrap;html=1;fillColor=none;" parent="TbtT0JVvoeRSLPMh4YAU-9" vertex="1">
          <mxGeometry x="504" y="34" width="61.36363636363636" height="25" as="geometry" />
        </mxCell>
        <mxCell id="xWHJRbcJxK2UCn6IHJpZ-48" value="..." style="text;html=1;strokeColor=none;fillColor=none;align=center;verticalAlign=middle;whiteSpace=wrap;rounded=0;" parent="TbtT0JVvoeRSLPMh4YAU-9" vertex="1">
          <mxGeometry x="569.4545454545455" y="34" width="32.72727272727273" height="20" as="geometry" />
        </mxCell>
        <mxCell id="xWHJRbcJxK2UCn6IHJpZ-51" value="" style="rounded=1;whiteSpace=wrap;html=1;fillColor=none;" parent="TbtT0JVvoeRSLPMh4YAU-9" vertex="1">
          <mxGeometry x="98.18181818181817" y="34.5" width="135" height="93" as="geometry" />
        </mxCell>
        <mxCell id="xWHJRbcJxK2UCn6IHJpZ-52" value="创建、控制、销毁&lt;br&gt;跨平台API&amp;nbsp;" style="text;html=1;strokeColor=none;fillColor=none;align=center;verticalAlign=middle;whiteSpace=wrap;rounded=0;" parent="TbtT0JVvoeRSLPMh4YAU-9" vertex="1">
          <mxGeometry x="127.63636363636364" y="92.5" width="81.81818181818181" height="15" as="geometry" />
        </mxCell>
        <mxCell id="xWHJRbcJxK2UCn6IHJpZ-54" value="main.js" style="text;html=1;strokeColor=none;fillColor=none;align=center;verticalAlign=middle;whiteSpace=wrap;rounded=0;" parent="TbtT0JVvoeRSLPMh4YAU-9" vertex="1">
          <mxGeometry x="147.27272727272728" y="43" width="32.72727272727273" height="20" as="geometry" />
        </mxCell>
        <mxCell id="TbtT0JVvoeRSLPMh4YAU-1" value="" style="group" vertex="1" connectable="0" parent="TbtT0JVvoeRSLPMh4YAU-9">
          <mxGeometry x="98.18181818181817" y="320" width="597.2727272727273" height="90" as="geometry" />
        </mxCell>
        <mxCell id="xWHJRbcJxK2UCn6IHJpZ-4" value="" style="rounded=1;whiteSpace=wrap;html=1;fillColor=none;" parent="TbtT0JVvoeRSLPMh4YAU-1" vertex="1">
          <mxGeometry width="597.2727272727273" height="60" as="geometry" />
        </mxCell>
        <mxCell id="xWHJRbcJxK2UCn6IHJpZ-5" value="Node.js" style="text;html=1;strokeColor=none;fillColor=none;align=center;verticalAlign=middle;whiteSpace=wrap;rounded=0;" parent="TbtT0JVvoeRSLPMh4YAU-1" vertex="1">
          <mxGeometry x="35.29338842975207" y="20" width="54.29752066115703" height="20" as="geometry" />
        </mxCell>
        <mxCell id="xWHJRbcJxK2UCn6IHJpZ-13" value="Native API" style="rounded=0;whiteSpace=wrap;html=1;fillColor=none;" parent="TbtT0JVvoeRSLPMh4YAU-1" vertex="1">
          <mxGeometry x="122.17090909090909" y="13.75" width="434.1927272727272" height="32.5" as="geometry" />
        </mxCell>
        <mxCell id="xWHJRbcJxK2UCn6IHJpZ-15" value="" style="shape=flexArrow;endArrow=classic;html=1;width=3.0232558139534884;endSize=6.023255813953488;endWidth=12;exitX=0.557;exitY=0.985;exitDx=0;exitDy=0;exitPerimeter=0;" parent="TbtT0JVvoeRSLPMh4YAU-1" edge="1">
          <mxGeometry width="50" height="50" relative="1" as="geometry">
            <mxPoint x="339.391301652893" y="46.25250000000005" as="sourcePoint" />
            <mxPoint x="338.8619008264463" y="90.49" as="targetPoint" />
          </mxGeometry>
        </mxCell>
        <mxCell id="TbtT0JVvoeRSLPMh4YAU-2" value="" style="group" vertex="1" connectable="0" parent="TbtT0JVvoeRSLPMh4YAU-9">
          <mxGeometry y="410" width="810" height="95" as="geometry" />
        </mxCell>
        <mxCell id="xWHJRbcJxK2UCn6IHJpZ-20" value="" style="rounded=0;whiteSpace=wrap;html=1;fillColor=#f8cecc;strokeColor=#b85450;" parent="TbtT0JVvoeRSLPMh4YAU-2" vertex="1">
          <mxGeometry width="810" height="95" as="geometry" />
        </mxCell>
        <mxCell id="xWHJRbcJxK2UCn6IHJpZ-9" value="windows" style="rounded=1;whiteSpace=wrap;html=1;fillColor=none;" parent="TbtT0JVvoeRSLPMh4YAU-2" vertex="1">
          <mxGeometry x="98.18181818181817" y="15" width="278.1818181818182" height="60" as="geometry" />
        </mxCell>
        <mxCell id="xWHJRbcJxK2UCn6IHJpZ-10" value="mac" style="rounded=1;whiteSpace=wrap;html=1;fillColor=none;" parent="TbtT0JVvoeRSLPMh4YAU-2" vertex="1">
          <mxGeometry x="384.54545454545456" y="15" width="139.0909090909091" height="60" as="geometry" />
        </mxCell>
        <mxCell id="xWHJRbcJxK2UCn6IHJpZ-11" value="Linux" style="rounded=1;whiteSpace=wrap;html=1;fillColor=none;" parent="TbtT0JVvoeRSLPMh4YAU-2" vertex="1">
          <mxGeometry x="531.8181818181818" y="15" width="171.8181818181818" height="60" as="geometry" />
        </mxCell>
        <mxCell id="xWHJRbcJxK2UCn6IHJpZ-24" value="操作系统" style="text;html=1;strokeColor=none;fillColor=none;align=center;verticalAlign=middle;whiteSpace=wrap;rounded=0;" parent="TbtT0JVvoeRSLPMh4YAU-2" vertex="1">
          <mxGeometry x="26.18" y="35" width="53.82" height="20" as="geometry" />
        </mxCell>
        <mxCell id="TbtT0JVvoeRSLPMh4YAU-13" value="system&lt;br&gt;shell&lt;br&gt;nsis" style="text;html=1;strokeColor=none;fillColor=none;align=center;verticalAlign=middle;whiteSpace=wrap;rounded=0;" vertex="1" parent="TbtT0JVvoeRSLPMh4YAU-2">
          <mxGeometry x="710" y="9.5" width="80" height="76" as="geometry" />
        </mxCell>
        <mxCell id="TbtT0JVvoeRSLPMh4YAU-3" value="" style="group" vertex="1" connectable="0" parent="TbtT0JVvoeRSLPMh4YAU-9">
          <mxGeometry x="220.9090909090909" y="220" width="466.3636363636364" height="86.25" as="geometry" />
        </mxCell>
        <mxCell id="xWHJRbcJxK2UCn6IHJpZ-26" value="渲染进程" style="ellipse;whiteSpace=wrap;html=1;aspect=fixed;fillColor=none;" parent="TbtT0JVvoeRSLPMh4YAU-3" vertex="1">
          <mxGeometry x="384.5436363636363" width="56.66666666666667" height="56.66666666666667" as="geometry" />
        </mxCell>
        <mxCell id="TbtT0JVvoeRSLPMh4YAU-5" style="edgeStyle=orthogonalEdgeStyle;rounded=0;orthogonalLoop=1;jettySize=auto;html=1;exitX=0.5;exitY=0;exitDx=0;exitDy=0;entryX=1;entryY=0.5;entryDx=0;entryDy=0;" edge="1" parent="TbtT0JVvoeRSLPMh4YAU-9" source="xWHJRbcJxK2UCn6IHJpZ-25" target="xWHJRbcJxK2UCn6IHJpZ-51">
          <mxGeometry relative="1" as="geometry">
            <Array as="points">
              <mxPoint x="252" y="174" />
              <mxPoint x="253" y="174" />
              <mxPoint x="253" y="81" />
            </Array>
          </mxGeometry>
        </mxCell>
        <mxCell id="TbtT0JVvoeRSLPMh4YAU-6" value="" style="shape=flexArrow;endArrow=classic;html=1;width=5.116279069767442;endSize=4.611627906976744;endWidth=12;exitX=0.5;exitY=1;exitDx=0;exitDy=0;" edge="1" parent="TbtT0JVvoeRSLPMh4YAU-9" source="xWHJRbcJxK2UCn6IHJpZ-25">
          <mxGeometry width="50" height="50" relative="1" as="geometry">
            <mxPoint x="252.5454545454545" y="289" as="sourcePoint" />
            <mxPoint x="252.54917355371907" y="320" as="targetPoint" />
          </mxGeometry>
        </mxCell>
        <mxCell id="TbtT0JVvoeRSLPMh4YAU-7" style="edgeStyle=orthogonalEdgeStyle;rounded=0;orthogonalLoop=1;jettySize=auto;html=1;exitX=0.5;exitY=0;exitDx=0;exitDy=0;entryX=1;entryY=0.5;entryDx=0;entryDy=0;" edge="1" parent="TbtT0JVvoeRSLPMh4YAU-9" source="xWHJRbcJxK2UCn6IHJpZ-26" target="xWHJRbcJxK2UCn6IHJpZ-32">
          <mxGeometry relative="1" as="geometry" />
        </mxCell>
        <mxCell id="TbtT0JVvoeRSLPMh4YAU-8" style="edgeStyle=orthogonalEdgeStyle;rounded=0;orthogonalLoop=1;jettySize=auto;html=1;exitX=0.5;exitY=0;exitDx=0;exitDy=0;entryX=1;entryY=0.5;entryDx=0;entryDy=0;" edge="1" parent="TbtT0JVvoeRSLPMh4YAU-9" source="xWHJRbcJxK2UCn6IHJpZ-26" target="xWHJRbcJxK2UCn6IHJpZ-31">
          <mxGeometry relative="1" as="geometry" />
        </mxCell>
        <mxCell id="TbtT0JVvoeRSLPMh4YAU-10" value="React&lt;br&gt;Vue&lt;br&gt;html、js&lt;br&gt;typeScript&lt;br&gt;webpack" style="text;html=1;strokeColor=none;fillColor=none;align=center;verticalAlign=middle;whiteSpace=wrap;rounded=0;" vertex="1" parent="TbtT0JVvoeRSLPMh4YAU-9">
          <mxGeometry x="710" y="34" width="80" height="96" as="geometry" />
        </mxCell>
        <mxCell id="TbtT0JVvoeRSLPMh4YAU-12" value="Node.js&lt;br&gt;NAPI&lt;br&gt;electron&lt;br&gt;C/C++" style="text;html=1;strokeColor=none;fillColor=none;align=center;verticalAlign=middle;whiteSpace=wrap;rounded=0;" vertex="1" parent="TbtT0JVvoeRSLPMh4YAU-9">
          <mxGeometry x="710" y="240" width="80" height="76" as="geometry" />
        </mxCell>
        <mxCell id="xWHJRbcJxK2UCn6IHJpZ-25" value="主进程" style="ellipse;whiteSpace=wrap;html=1;aspect=fixed;fillColor=none;" parent="TbtT0JVvoeRSLPMh4YAU-9" vertex="1">
          <mxGeometry x="223.90909090909088" y="220" width="56.66666666666667" height="56.66666666666667" as="geometry" />
        </mxCell>
        <mxCell id="xWHJRbcJxK2UCn6IHJpZ-33" value="" style="endArrow=classic;startArrow=classic;html=1;exitX=1;exitY=0.5;exitDx=0;exitDy=0;" parent="TbtT0JVvoeRSLPMh4YAU-9" source="xWHJRbcJxK2UCn6IHJpZ-25" target="xWHJRbcJxK2UCn6IHJpZ-26" edge="1">
          <mxGeometry width="50" height="50" relative="1" as="geometry">
            <mxPoint x="410.9090909090909" y="262.1448863636364" as="sourcePoint" />
            <mxPoint x="497.2727272727272" y="285.6676136363636" as="targetPoint" />
          </mxGeometry>
        </mxCell>
        <mxCell id="xWHJRbcJxK2UCn6IHJpZ-34" value="remote通信" style="edgeLabel;html=1;align=center;verticalAlign=middle;resizable=0;points=[];" parent="xWHJRbcJxK2UCn6IHJpZ-33" vertex="1" connectable="0">
          <mxGeometry x="-0.0333" y="4" relative="1" as="geometry">
            <mxPoint y="-2" as="offset" />
          </mxGeometry>
        </mxCell>
        <mxCell id="xWHJRbcJxK2UCn6IHJpZ-49" value="" style="endArrow=classic;html=1;exitX=1;exitY=1;exitDx=0;exitDy=0;entryX=0;entryY=1;entryDx=0;entryDy=0;" parent="TbtT0JVvoeRSLPMh4YAU-9" source="xWHJRbcJxK2UCn6IHJpZ-25" target="xWHJRbcJxK2UCn6IHJpZ-26" edge="1">
          <mxGeometry width="50" height="50" relative="1" as="geometry">
            <mxPoint x="549.090909090909" y="262.1448863636364" as="sourcePoint" />
            <mxPoint x="635.4545454545454" y="222.9403409090909" as="targetPoint" />
          </mxGeometry>
        </mxCell>
        <mxCell id="xWHJRbcJxK2UCn6IHJpZ-50" value="创建" style="edgeLabel;html=1;align=center;verticalAlign=middle;resizable=0;points=[];" parent="xWHJRbcJxK2UCn6IHJpZ-49" vertex="1" connectable="0">
          <mxGeometry x="0.0651" y="-1" relative="1" as="geometry">
            <mxPoint as="offset" />
          </mxGeometry>
        </mxCell>
        <mxCell id="TbtT0JVvoeRSLPMh4YAU-15" value="" style="endArrow=classic;startArrow=classic;html=1;entryX=0.5;entryY=1;entryDx=0;entryDy=0;exitX=0.5;exitY=0;exitDx=0;exitDy=0;" edge="1" parent="TbtT0JVvoeRSLPMh4YAU-9" source="xWHJRbcJxK2UCn6IHJpZ-32" target="xWHJRbcJxK2UCn6IHJpZ-31">
          <mxGeometry width="50" height="50" relative="1" as="geometry">
            <mxPoint x="444" y="100" as="sourcePoint" />
            <mxPoint x="500" y="100" as="targetPoint" />
          </mxGeometry>
        </mxCell>
        <mxCell id="TbtT0JVvoeRSLPMh4YAU-16" value="preLoad.js" style="text;html=1;strokeColor=none;fillColor=none;align=center;verticalAlign=middle;whiteSpace=wrap;rounded=0;" vertex="1" parent="TbtT0JVvoeRSLPMh4YAU-9">
          <mxGeometry x="467" y="75" width="40" height="20" as="geometry" />
        </mxCell>
      </root>
    </mxGraphModel>
  </diagram>
</mxfile>
